<svg width="21" height="19" viewBox="0 0 21 19" xmlns="http://www.w3.org/2000/svg">
<path fill-rule="evenodd" clip-rule="evenodd" d="M10.0211 2.16846C8.08814 2.16846 6.52114 3.73546 6.52114 5.66846C6.52114 7.60145 8.08814 9.16846 10.0211 9.16846C11.9541 9.16846 13.5211 7.60145 13.5211 5.66846C13.5211 3.73546 11.9541 2.16846 10.0211 2.16846ZM4.52114 5.66846C4.52114 2.63089 6.98357 0.168457 10.0211 0.168457C13.0587 0.168457 15.5211 2.63089 15.5211 5.66846C15.5211 7.75494 14.3593 9.57007 12.6473 10.5022C13.9152 10.8297 15.1182 11.3935 16.1904 12.172C17.9798 13.4712 19.3133 15.3022 20.0008 17.404C20.1725 17.9289 19.8862 18.4936 19.3612 18.6653C18.8363 18.837 18.2716 18.5507 18.0999 18.0258C17.5433 16.3244 16.4638 14.8421 15.0153 13.7904C13.5668 12.7386 11.8232 12.171 10.0331 12.1685C8.24296 12.166 6.49776 12.7287 5.04629 13.7764C3.59481 14.8241 2.51116 16.3033 1.94984 18.0031C1.77666 18.5275 1.21113 18.8123 0.686701 18.6391C0.16227 18.4659 -0.122474 17.9004 0.0507058 17.376C0.744105 15.2762 2.08273 13.4489 3.87573 12.1547C4.94204 11.385 6.13667 10.8272 7.39498 10.5022C5.68297 9.57007 4.52114 7.75494 4.52114 5.66846Z"/>
</svg>
