<svg width="25" height="23" viewBox="0 0 25 23" xmlns="http://www.w3.org/2000/svg">
<path fill-rule="evenodd" clip-rule="evenodd" d="M7.07683 2.94165C4.61533 2.94165 2.521 5.07587 2.521 7.83421C2.521 9.15016 3.01443 10.4012 3.87585 11.3149L12.521 20.484L21.1661 11.3149C22.0276 10.4012 22.521 9.15016 22.521 7.83421C22.521 5.07587 20.4267 2.94165 17.9652 2.94165C16.7765 2.94165 15.6237 3.44192 14.7642 4.35355L13.2486 5.961C13.0596 6.16139 12.7964 6.27498 12.521 6.27498C12.2456 6.27498 11.9823 6.16139 11.7934 5.961L10.2778 4.35355C9.41828 3.44192 8.2655 2.94165 7.07683 2.94165ZM0.520996 7.83421C0.520996 4.0838 3.40152 0.94165 7.07683 0.94165C8.83517 0.94165 10.5087 1.68302 11.733 2.98153L12.521 3.81729L13.309 2.98153C14.5333 1.68302 16.2068 0.94165 17.9652 0.94165C21.6405 0.94165 24.521 4.0838 24.521 7.83421C24.521 9.64386 23.8437 11.3904 22.6213 12.6869L13.2486 22.6277C13.0596 22.8281 12.7964 22.9417 12.521 22.9417C12.2456 22.9417 11.9823 22.8281 11.7934 22.6277L2.42067 12.6869C1.19825 11.3904 0.520996 9.64386 0.520996 7.83421Z"/>
</svg>
