<svg width="21" height="34" viewBox="0 0 21 34" xmlns="http://www.w3.org/2000/svg">
<g id="Vector">
<path fill-rule="evenodd" clip-rule="evenodd" d="M17.0412 26.3919L0 26.3919L2.75038e-07 23.2437H17.0412V26.3919Z"/>
<path fill-rule="evenodd" clip-rule="evenodd" d="M9.17601 18.5215L0 18.5215L2.75038e-07 15.3734L9.17601 15.3734V18.5215Z"/>
<path d="M15.1011 0C16.8839 0 18.3127 0.537809 19.3876 1.61343C20.4625 2.68904 21 4.11883 21 5.90278V12.6319C21 14.4159 20.4625 15.8457 19.3876 16.9213C18.3127 17.9969 16.8839 18.5347 15.1011 18.5347H9.20226V34H6.09553V0H15.1011ZM9.20226 15.4653H15.1405C15.9794 15.4653 16.6479 15.216 17.1461 14.7176C17.6442 14.2191 17.8933 13.5502 17.8933 12.7106V5.82407C17.8933 4.98457 17.6442 4.31559 17.1461 3.81713C16.6479 3.31867 15.9794 3.06944 15.1405 3.06944H9.20226V15.4653Z"/>
</g>
</svg>
