<svg width="16" height="12" viewBox="0 0 16 12" xmlns="http://www.w3.org/2000/svg">
<path fill-rule="evenodd" clip-rule="evenodd" d="M7.56827 0.354639C7.9247 -0.0672292 8.55564 -0.120273 8.97751 0.236162L14.8954 5.23616C15.1203 5.42617 15.25 5.70561 15.25 6.00002C15.25 6.29443 15.1203 6.57387 14.8954 6.76388L8.97751 11.7639C8.55564 12.1203 7.9247 12.0673 7.56827 11.6454C7.21183 11.2235 7.26487 10.5926 7.68674 10.2362L11.517 7.00002H1.75C1.19772 7.00002 0.75 6.55231 0.75 6.00002C0.75 5.44774 1.19772 5.00002 1.75 5.00002H11.517L7.68674 1.76388C7.26487 1.40745 7.21183 0.776506 7.56827 0.354639Z"/>
</svg>
