<svg width="36" height="36" viewBox="0 0 36 36" fill="none" xmlns="http://www.w3.org/2000/svg">
<path d="M10.0536 18.918C9.662 18.5967 9.15171 18.4223 8.62509 18.43C8.09848 18.4376 7.5945 18.6266 7.21424 18.959C6.83398 19.2915 6.60558 19.7428 6.57485 20.2225C6.54411 20.7022 6.71332 21.1747 7.04853 21.5453L11.6814 25.9813C11.8753 26.167 12.1084 26.3149 12.3666 26.4164C12.6248 26.5178 12.9028 26.5706 13.1839 26.5715C13.4635 26.573 13.7406 26.5232 13.9987 26.4251C14.2568 26.327 14.4907 26.1826 14.6864 26.0004L28.8354 12.6733C29.0272 12.4933 29.1783 12.2805 29.28 12.0472C29.3817 11.814 29.4321 11.5647 29.4282 11.3136C29.4243 11.0626 29.3663 10.8147 29.2574 10.5841C29.1485 10.3535 28.9909 10.1448 28.7936 9.96978C28.5963 9.79476 28.3631 9.65692 28.1074 9.56411C27.8517 9.47131 27.5785 9.42536 27.3033 9.4289C27.0281 9.43244 26.7564 9.48538 26.5037 9.58472C26.2509 9.68406 26.0221 9.82784 25.8303 10.0079L13.2048 21.9261L10.0536 18.918Z" fill="#79DDC4"/>
</svg>
