<svg width="23" height="25" viewBox="0 0 23 25" xmlns="http://www.w3.org/2000/svg">
<path fill-rule="evenodd" clip-rule="evenodd" d="M11.1082 2.44165C6.36765 2.44165 2.52148 6.29233 2.52148 11.0463C2.52148 15.8003 6.36765 19.651 11.1082 19.651C15.8487 19.651 19.6949 15.8003 19.6949 11.0463C19.6949 6.29233 15.8487 2.44165 11.1082 2.44165ZM0.521484 11.0463C0.521484 5.19129 5.25955 0.44165 11.1082 0.44165C16.9568 0.44165 21.6949 5.19129 21.6949 11.0463C21.6949 14.1136 20.3946 16.8775 18.3155 18.8141L22.2293 22.7352C22.6194 23.1261 22.6188 23.7593 22.2279 24.1494C21.837 24.5396 21.2039 24.539 20.8137 24.1481L16.716 20.0427C15.0902 21.0618 13.1681 21.651 11.1082 21.651C5.25955 21.651 0.521484 16.9014 0.521484 11.0463Z"/>
</svg>
