<svg width="20" height="17" viewBox="0 0 20 17" fill="none" xmlns="http://www.w3.org/2000/svg">
<path fill-rule="evenodd" clip-rule="evenodd" d="M7.5 5.125H0V3.125H7.5V5.125ZM20 5.125L12.5 5.125V3.125L20 3.125V5.125Z" fill="#495A7D"/>
<path fill-rule="evenodd" clip-rule="evenodd" d="M8.75 13.875H0V11.875H8.75V13.875ZM20 13.875H16.25V11.875H20V13.875Z" fill="#495A7D"/>
<path fill-rule="evenodd" clip-rule="evenodd" d="M10 5.875C10.9665 5.875 11.75 5.0915 11.75 4.125C11.75 3.1585 10.9665 2.375 10 2.375C9.0335 2.375 8.25 3.1585 8.25 4.125C8.25 5.0915 9.0335 5.875 10 5.875ZM10 7.875C12.0711 7.875 13.75 6.19607 13.75 4.125C13.75 2.05393 12.0711 0.375 10 0.375C7.92893 0.375 6.25 2.05393 6.25 4.125C6.25 6.19607 7.92893 7.875 10 7.875Z" fill="#495A7D"/>
<path fill-rule="evenodd" clip-rule="evenodd" d="M13.75 14.625C14.7165 14.625 15.5 13.8415 15.5 12.875C15.5 11.9085 14.7165 11.125 13.75 11.125C12.7835 11.125 12 11.9085 12 12.875C12 13.8415 12.7835 14.625 13.75 14.625ZM13.75 16.625C15.8211 16.625 17.5 14.9461 17.5 12.875C17.5 10.8039 15.8211 9.125 13.75 9.125C11.6789 9.125 10 10.8039 10 12.875C10 14.9461 11.6789 16.625 13.75 16.625Z" fill="#495A7D"/>
</svg>
