<svg width="19" height="20" viewBox="0 0 19 20" fill="none" xmlns="http://www.w3.org/2000/svg">
<g id="Vector">
<path d="M9.281 19.2809C8.54876 19.2809 7.95517 18.6873 7.95518 17.955L7.95527 2.04508C7.95528 1.31284 8.54888 0.719243 9.28111 0.719238C10.0133 0.719234 10.6069 1.31282 10.6069 2.04506L10.6068 17.955C10.6068 18.6873 10.0132 19.2809 9.281 19.2809Z" fill="#657493"/>
<path d="M18.5616 10C18.5616 10.7322 17.968 11.3258 17.2358 11.3258L1.32582 11.3259C0.593585 11.3259 -4.5366e-06 10.7324 0 10.0001C4.53666e-06 9.26788 0.593603 8.67428 1.32584 8.67428L17.2358 8.67418C17.968 8.67418 18.5616 9.26777 18.5616 10Z" fill="#657493"/>
</g>
</svg>
