<svg width="25" height="19" viewBox="0 0 25 19" fill="none" xmlns="http://www.w3.org/2000/svg">
<g id="Vector">
<path d="M15.9087 18.9914C13.2152 18.9914 10.5209 19.0152 7.82739 18.9835C5.78416 18.959 3.87287 18.4322 2.19229 17.2242C1.13751 16.4658 0.351651 15.5038 0.0856133 14.1898C0.0264938 13.8975 0.00342274 13.6016 0.00342274 13.3036C0.00342274 10.7426 -0.00162405 8.18155 0.000538857 5.62051C0.000538857 5.15868 0.0776827 4.70478 0.228365 4.26675C0.337232 3.95068 0.594618 3.7977 0.87075 3.87419C1.14688 3.95068 1.29973 4.22634 1.20384 4.54602C0.719346 6.16101 1.38192 7.35529 2.59819 8.33309C3.63423 9.16584 4.85051 9.61108 6.14176 9.84488C8.1129 10.2028 10.0516 10.0736 11.9319 9.34913C12.8151 9.00852 13.6153 8.53081 14.2794 7.84311C15.624 6.45038 15.6341 4.62323 14.2931 3.22762C13.3443 2.24044 12.1489 1.69129 10.8461 1.35862C9.68677 1.06276 8.50799 0.947297 7.3119 1.06781C7.19582 1.07935 7.07758 1.08224 6.96079 1.07575C6.67672 1.05987 6.4835 0.865033 6.47485 0.595868C6.46548 0.323095 6.63779 0.11599 6.91969 0.0748577C7.58298 -0.0218395 8.25204 -0.0110151 8.91606 0.0301172C10.3955 0.121041 11.8165 0.461646 13.1373 1.15729C14.208 1.72087 15.1287 2.45765 15.7516 3.51771C16.1193 4.14336 16.3125 4.81879 16.3082 5.55196C16.3002 6.94036 16.3118 8.32948 16.3002 9.71788C16.2981 9.97405 16.3839 10.0354 16.6261 10.0347C19.1668 10.0275 21.7075 10.0303 24.2482 10.0303C24.8336 10.0303 24.9995 10.197 24.9995 10.7902C25.0002 13.2704 25.0002 15.7499 24.9995 18.2301C24.9995 18.8478 24.8517 18.9936 24.2345 18.9936C21.4588 18.9921 18.6838 18.9921 15.9087 18.9914ZM1.09569 8.28474C1.02143 8.35113 1.04522 8.41824 1.04522 8.47741C1.04378 10.1545 1.04739 11.8315 1.04378 13.5086C1.04234 14.1154 1.22186 14.6646 1.55495 15.1618C2.38046 16.3921 3.60251 17.0495 4.96442 17.5013C5.10717 17.5489 5.14034 17.4789 5.14034 17.3562C5.13962 17.0495 5.13673 16.7429 5.14322 16.4369C5.15115 16.0342 5.34293 15.8112 5.6652 15.8163C5.98892 15.8213 6.17132 16.0414 6.17925 16.447C6.18502 16.7537 6.18142 17.0604 6.18142 17.3663C6.18142 17.8253 6.18286 17.8137 6.62626 17.8765C7.79206 18.0418 8.96364 17.9617 10.1331 17.9848C10.3227 17.9884 10.3876 17.9162 10.3832 17.7308C10.3746 17.3613 10.3703 16.9911 10.3861 16.6216C10.4034 16.2103 10.7848 15.9714 11.1229 16.1454C11.2989 16.2363 11.3883 16.3885 11.3948 16.5827C11.407 16.9608 11.4149 17.3389 11.4157 17.7178C11.4157 17.891 11.4611 17.9855 11.6593 17.984C12.9023 17.979 14.146 17.979 15.3889 17.9833C15.5663 17.984 15.6276 17.9162 15.624 17.7437C15.616 17.3923 15.6189 17.0402 15.6232 16.6887C15.6276 16.3229 15.8359 16.0862 16.1409 16.0905C16.4365 16.0941 16.6268 16.3221 16.6297 16.6815C16.6326 17.0329 16.6384 17.3851 16.6276 17.7365C16.6218 17.9292 16.6989 17.9855 16.8821 17.9848C18.125 17.9797 19.3687 17.9783 20.6116 17.9855C20.8222 17.9869 20.8726 17.8996 20.8676 17.7098C20.8575 17.3678 20.8625 17.0243 20.8654 16.6822C20.869 16.3229 21.0579 16.0992 21.3571 16.092C21.6592 16.0847 21.8683 16.3236 21.8726 16.6916C21.8769 17.0344 21.882 17.3772 21.8705 17.7192C21.864 17.9191 21.9346 17.9905 22.1358 17.9855C22.6037 17.9747 23.0723 17.9826 23.5409 17.9826C23.9605 17.9826 23.9613 17.9826 23.9613 17.5742C23.9613 15.5183 23.9613 13.4624 23.9605 11.4065C23.9605 11.0392 23.9598 11.0392 23.582 11.0392C19.9065 11.0392 16.231 11.05 12.5555 11.0348C10.6832 11.0276 8.80791 11.1243 6.93771 10.9764C5.47414 10.8602 4.09637 10.4308 2.82097 9.69118C2.17066 9.31521 1.59605 8.84472 1.09569 8.28474ZM15.2952 8.21041C14.9239 8.63472 14.5728 8.95657 14.1914 9.24305C13.8114 9.52881 13.399 9.76478 12.9888 10.0072C13.6846 10.0289 14.3688 10.0289 15.053 10.0296C15.1748 10.0296 15.2959 10.0318 15.2959 9.85715C15.2945 9.33614 15.2952 8.81585 15.2952 8.21041Z" fill="#13B5EA"/>
<path d="M8.57651 8.17806C7.13385 8.17229 6.17712 7.94425 5.34872 7.31067C4.05747 6.32277 4.0654 4.72871 5.35521 3.7372C5.99615 3.24434 6.73515 2.9961 7.52245 2.91167C8.56137 2.79982 9.57073 2.9261 10.5073 3.43268C10.7135 3.54453 10.9096 3.67298 11.0869 3.82669C12.2643 4.8485 12.2289 6.34442 10.9932 7.30129C10.1612 7.94498 9.19654 8.18455 8.57651 8.17806ZM8.26793 7.16707C8.40564 7.18006 8.64716 7.14325 8.8858 7.1014C9.508 6.9946 10.0913 6.79399 10.5491 6.33215C11.0559 5.82052 11.0509 5.22014 10.539 4.71211C10.4373 4.61109 10.3234 4.518 10.2023 4.44223C9.43807 3.96379 8.59814 3.82596 7.71495 3.91617C7.05021 3.98472 6.42081 4.16585 5.90243 4.61181C5.21534 5.20426 5.25644 5.9901 5.99543 6.52122C6.64215 6.98738 7.37898 7.15408 8.26793 7.16707Z" fill="#13B5EA"/>
<path d="M4.99112 1.15741C4.96661 1.3739 4.84909 1.53843 4.63785 1.61636C3.8902 1.89346 3.19735 2.26654 2.55857 2.74498C2.31704 2.92538 2.03514 2.87415 1.86211 2.65622C1.68908 2.43901 1.70782 2.15108 1.94286 1.95841C2.66671 1.36307 3.48429 0.930822 4.37397 0.64506C4.68255 0.546198 5.0005 0.825465 4.99112 1.15741Z" fill="#13B5EA"/>
</g>
</svg>
