<svg width="25" height="23" viewBox="0 0 25 23" xmlns="http://www.w3.org/2000/svg">
<path fill-rule="evenodd" clip-rule="evenodd" d="M9.08276 1.16829C9.47765 1.55441 9.48476 2.18753 9.09865 2.58242L3.42667 8.3833H20.6739L15.002 2.58242C14.6159 2.18753 14.623 1.55441 15.0179 1.16829C15.4127 0.782182 16.0459 0.789296 16.432 1.18418L23.7653 8.68418C23.9952 8.91932 24.0948 9.25247 24.0317 9.57522L21.5873 22.0752C21.4955 22.5446 21.0842 22.8833 20.6059 22.8833H3.49475C3.01646 22.8833 2.60514 22.5446 2.51334 22.0752L0.0688972 9.57522C0.00578181 9.25247 0.105387 8.91932 0.335301 8.68418L7.66863 1.18418C8.05475 0.789296 8.68787 0.782182 9.08276 1.16829ZM21.8358 10.3833H2.2648L4.31814 20.8833H19.7825L21.8358 10.3833Z"/>
</svg>
