<svg xmlns="http://www.w3.org/2000/svg" xmlns:xlink="http://www.w3.org/1999/xlink"><defs><style>
    .sprite-symbol-usage {display: none;}
    .sprite-symbol-usage:target {display: inline;}
  </style><symbol viewBox="0 0 14 9" id="icon-arrow">
<path fill-rule="evenodd" clip-rule="evenodd" d="M13.7071 0.792893C13.3166 0.402369 12.6834 0.402369 12.2929 0.792893L7 6.08579L1.70711 0.792893C1.31658 0.402369 0.683418 0.402369 0.292894 0.792893C-0.0976311 1.18342 -0.0976312 1.81658 0.292894 2.20711L6.29289 8.20711C6.68342 8.59763 7.31658 8.59763 7.70711 8.20711L13.7071 2.20711C14.0976 1.81658 14.0976 1.18342 13.7071 0.792893Z" />
</symbol><symbol viewBox="0 0 16 12" id="icon-arrow-pointer">
<path fill-rule="evenodd" clip-rule="evenodd" d="M7.56827 0.354639C7.9247 -0.0672292 8.55564 -0.120273 8.97751 0.236162L14.8954 5.23616C15.1203 5.42617 15.25 5.70561 15.25 6.00002C15.25 6.29443 15.1203 6.57387 14.8954 6.76388L8.97751 11.7639C8.55564 12.1203 7.9247 12.0673 7.56827 11.6454C7.21183 11.2235 7.26487 10.5926 7.68674 10.2362L11.517 7.00002H1.75C1.19772 7.00002 0.75 6.55231 0.75 6.00002C0.75 5.44774 1.19772 5.00002 1.75 5.00002H11.517L7.68674 1.76388C7.26487 1.40745 7.21183 0.776506 7.56827 0.354639Z" />
</symbol><symbol viewBox="0 0 25 23" id="icon-cart">
<path fill-rule="evenodd" clip-rule="evenodd" d="M9.08276 1.16829C9.47765 1.55441 9.48476 2.18753 9.09865 2.58242L3.42667 8.3833H20.6739L15.002 2.58242C14.6159 2.18753 14.623 1.55441 15.0179 1.16829C15.4127 0.782182 16.0459 0.789296 16.432 1.18418L23.7653 8.68418C23.9952 8.91932 24.0948 9.25247 24.0317 9.57522L21.5873 22.0752C21.4955 22.5446 21.0842 22.8833 20.6059 22.8833H3.49475C3.01646 22.8833 2.60514 22.5446 2.51334 22.0752L0.0688972 9.57522C0.00578181 9.25247 0.105387 8.91932 0.335301 8.68418L7.66863 1.18418C8.05475 0.789296 8.68787 0.782182 9.08276 1.16829ZM21.8358 10.3833H2.2648L4.31814 20.8833H19.7825L21.8358 10.3833Z" />
</symbol><symbol viewBox="0 0 36 36" fill="none" id="icon-checked">
<path d="M10.0536 18.918C9.662 18.5967 9.15171 18.4223 8.62509 18.43C8.09848 18.4376 7.5945 18.6266 7.21424 18.959C6.83398 19.2915 6.60558 19.7428 6.57485 20.2225C6.54411 20.7022 6.71332 21.1747 7.04853 21.5453L11.6814 25.9813C11.8753 26.167 12.1084 26.3149 12.3666 26.4164C12.6248 26.5178 12.9028 26.5706 13.1839 26.5715C13.4635 26.573 13.7406 26.5232 13.9987 26.4251C14.2568 26.327 14.4907 26.1826 14.6864 26.0004L28.8354 12.6733C29.0272 12.4933 29.1783 12.2805 29.28 12.0472C29.3817 11.814 29.4321 11.5647 29.4282 11.3136C29.4243 11.0626 29.3663 10.8147 29.2574 10.5841C29.1485 10.3535 28.9909 10.1448 28.7936 9.96978C28.5963 9.79476 28.3631 9.65692 28.1074 9.56411C27.8517 9.47131 27.5785 9.42536 27.3033 9.4289C27.0281 9.43244 26.7564 9.48538 26.5037 9.58472C26.2509 9.68406 26.0221 9.82784 25.8303 10.0079L13.2048 21.9261L10.0536 18.918Z" fill="#79DDC4" />
</symbol><symbol viewBox="0 0 22 20" id="icon-heart">
<g id="icon-heart_shape">
<path id="icon-heart_shape_2" d="M1.62727 10.0592L11 20L20.3727 10.0592C21.4147 8.95415 22 7.45536 22 5.89256C22 2.63819 19.5126 0 16.4442 0C14.9707 0 13.5575 0.62082 12.5156 1.72589L11 3.33333L9.48441 1.72589C8.44249 0.620822 7.02934 0 5.55584 0C2.48743 0 0 2.63819 0 5.89256C0 7.45536 0.585344 8.95415 1.62727 10.0592Z" />
</g>
</symbol><symbol viewBox="0 0 25 23" id="icon-heart-transparent">
<path fill-rule="evenodd" clip-rule="evenodd" d="M7.07683 2.94165C4.61533 2.94165 2.521 5.07587 2.521 7.83421C2.521 9.15016 3.01443 10.4012 3.87585 11.3149L12.521 20.484L21.1661 11.3149C22.0276 10.4012 22.521 9.15016 22.521 7.83421C22.521 5.07587 20.4267 2.94165 17.9652 2.94165C16.7765 2.94165 15.6237 3.44192 14.7642 4.35355L13.2486 5.961C13.0596 6.16139 12.7964 6.27498 12.521 6.27498C12.2456 6.27498 11.9823 6.16139 11.7934 5.961L10.2778 4.35355C9.41828 3.44192 8.2655 2.94165 7.07683 2.94165ZM0.520996 7.83421C0.520996 4.0838 3.40152 0.94165 7.07683 0.94165C8.83517 0.94165 10.5087 1.68302 11.733 2.98153L12.521 3.81729L13.309 2.98153C14.5333 1.68302 16.2068 0.94165 17.9652 0.94165C21.6405 0.94165 24.521 4.0838 24.521 7.83421C24.521 9.64386 23.8437 11.3904 22.6213 12.6869L13.2486 22.6277C13.0596 22.8281 12.7964 22.9417 12.521 22.9417C12.2456 22.9417 11.9823 22.8281 11.7934 22.6277L2.42067 12.6869C1.19825 11.3904 0.520996 9.64386 0.520996 7.83421Z" />
</symbol><symbol viewBox="0 0 21 19" id="icon-person">
<path fill-rule="evenodd" clip-rule="evenodd" d="M10.0211 2.16846C8.08814 2.16846 6.52114 3.73546 6.52114 5.66846C6.52114 7.60145 8.08814 9.16846 10.0211 9.16846C11.9541 9.16846 13.5211 7.60145 13.5211 5.66846C13.5211 3.73546 11.9541 2.16846 10.0211 2.16846ZM4.52114 5.66846C4.52114 2.63089 6.98357 0.168457 10.0211 0.168457C13.0587 0.168457 15.5211 2.63089 15.5211 5.66846C15.5211 7.75494 14.3593 9.57007 12.6473 10.5022C13.9152 10.8297 15.1182 11.3935 16.1904 12.172C17.9798 13.4712 19.3133 15.3022 20.0008 17.404C20.1725 17.9289 19.8862 18.4936 19.3612 18.6653C18.8363 18.837 18.2716 18.5507 18.0999 18.0258C17.5433 16.3244 16.4638 14.8421 15.0153 13.7904C13.5668 12.7386 11.8232 12.171 10.0331 12.1685C8.24296 12.166 6.49776 12.7287 5.04629 13.7764C3.59481 14.8241 2.51116 16.3033 1.94984 18.0031C1.77666 18.5275 1.21113 18.8123 0.686701 18.6391C0.16227 18.4659 -0.122474 17.9004 0.0507058 17.376C0.744105 15.2762 2.08273 13.4489 3.87573 12.1547C4.94204 11.385 6.13667 10.8272 7.39498 10.5022C5.68297 9.57007 4.52114 7.75494 4.52114 5.66846Z" />
</symbol><symbol viewBox="0 0 19 20" id="icon-plus">
<g id="icon-plus_Vector">
<path d="M9.281 19.2809C8.54876 19.2809 7.95517 18.6873 7.95518 17.955L7.95527 2.04508C7.95528 1.31284 8.54888 0.719243 9.28111 0.719238C10.0133 0.719234 10.6069 1.31282 10.6069 2.04506L10.6068 17.955C10.6068 18.6873 10.0132 19.2809 9.281 19.2809Z" />
<path d="M18.5616 10C18.5616 10.7322 17.968 11.3258 17.2358 11.3258L1.32582 11.3259C0.593585 11.3259 -4.5366e-06 10.7324 0 10.0001C4.53666e-06 9.26788 0.593603 8.67428 1.32584 8.67428L17.2358 8.67418C17.968 8.67418 18.5616 9.26777 18.5616 10Z" />
</g>
</symbol><symbol viewBox="0 0 21 34" id="icon-ruble">
<g id="icon-ruble_Vector">
<path fill-rule="evenodd" clip-rule="evenodd" d="M17.0412 26.3919L0 26.3919L2.75038e-07 23.2437H17.0412V26.3919Z" />
<path fill-rule="evenodd" clip-rule="evenodd" d="M9.17601 18.5215L0 18.5215L2.75038e-07 15.3734L9.17601 15.3734V18.5215Z" />
<path d="M15.1011 0C16.8839 0 18.3127 0.537809 19.3876 1.61343C20.4625 2.68904 21 4.11883 21 5.90278V12.6319C21 14.4159 20.4625 15.8457 19.3876 16.9213C18.3127 17.9969 16.8839 18.5347 15.1011 18.5347H9.20226V34H6.09553V0H15.1011ZM9.20226 15.4653H15.1405C15.9794 15.4653 16.6479 15.216 17.1461 14.7176C17.6442 14.2191 17.8933 13.5502 17.8933 12.7106V5.82407C17.8933 4.98457 17.6442 4.31559 17.1461 3.81713C16.6479 3.31867 15.9794 3.06944 15.1405 3.06944H9.20226V15.4653Z" />
</g>
</symbol><symbol viewBox="0 0 23 25" id="icon-search">
<path fill-rule="evenodd" clip-rule="evenodd" d="M11.1082 2.44165C6.36765 2.44165 2.52148 6.29233 2.52148 11.0463C2.52148 15.8003 6.36765 19.651 11.1082 19.651C15.8487 19.651 19.6949 15.8003 19.6949 11.0463C19.6949 6.29233 15.8487 2.44165 11.1082 2.44165ZM0.521484 11.0463C0.521484 5.19129 5.25955 0.44165 11.1082 0.44165C16.9568 0.44165 21.6949 5.19129 21.6949 11.0463C21.6949 14.1136 20.3946 16.8775 18.3155 18.8141L22.2293 22.7352C22.6194 23.1261 22.6188 23.7593 22.2279 24.1494C21.837 24.5396 21.2039 24.539 20.8137 24.1481L16.716 20.0427C15.0902 21.0618 13.1681 21.651 11.1082 21.651C5.25955 21.651 0.521484 16.9014 0.521484 11.0463Z" />
</symbol><symbol viewBox="0 0 20 17" fill="none" id="icon-settings">
<path fill-rule="evenodd" clip-rule="evenodd" d="M7.5 5.125H0V3.125H7.5V5.125ZM20 5.125L12.5 5.125V3.125L20 3.125V5.125Z" fill="#495A7D" />
<path fill-rule="evenodd" clip-rule="evenodd" d="M8.75 13.875H0V11.875H8.75V13.875ZM20 13.875H16.25V11.875H20V13.875Z" fill="#495A7D" />
<path fill-rule="evenodd" clip-rule="evenodd" d="M10 5.875C10.9665 5.875 11.75 5.0915 11.75 4.125C11.75 3.1585 10.9665 2.375 10 2.375C9.0335 2.375 8.25 3.1585 8.25 4.125C8.25 5.0915 9.0335 5.875 10 5.875ZM10 7.875C12.0711 7.875 13.75 6.19607 13.75 4.125C13.75 2.05393 12.0711 0.375 10 0.375C7.92893 0.375 6.25 2.05393 6.25 4.125C6.25 6.19607 7.92893 7.875 10 7.875Z" fill="#495A7D" />
<path fill-rule="evenodd" clip-rule="evenodd" d="M13.75 14.625C14.7165 14.625 15.5 13.8415 15.5 12.875C15.5 11.9085 14.7165 11.125 13.75 11.125C12.7835 11.125 12 11.9085 12 12.875C12 13.8415 12.7835 14.625 13.75 14.625ZM13.75 16.625C15.8211 16.625 17.5 14.9461 17.5 12.875C17.5 10.8039 15.8211 9.125 13.75 9.125C11.6789 9.125 10 10.8039 10 12.875C10 14.9461 11.6789 16.625 13.75 16.625Z" fill="#495A7D" />
</symbol><symbol viewBox="0 0 25 19" fill="none" id="icon-tape">
<g id="icon-tape_Vector">
<path d="M15.9087 18.9914C13.2152 18.9914 10.5209 19.0152 7.82739 18.9835C5.78416 18.959 3.87287 18.4322 2.19229 17.2242C1.13751 16.4658 0.351651 15.5038 0.0856133 14.1898C0.0264938 13.8975 0.00342274 13.6016 0.00342274 13.3036C0.00342274 10.7426 -0.00162405 8.18155 0.000538857 5.62051C0.000538857 5.15868 0.0776827 4.70478 0.228365 4.26675C0.337232 3.95068 0.594618 3.7977 0.87075 3.87419C1.14688 3.95068 1.29973 4.22634 1.20384 4.54602C0.719346 6.16101 1.38192 7.35529 2.59819 8.33309C3.63423 9.16584 4.85051 9.61108 6.14176 9.84488C8.1129 10.2028 10.0516 10.0736 11.9319 9.34913C12.8151 9.00852 13.6153 8.53081 14.2794 7.84311C15.624 6.45038 15.6341 4.62323 14.2931 3.22762C13.3443 2.24044 12.1489 1.69129 10.8461 1.35862C9.68677 1.06276 8.50799 0.947297 7.3119 1.06781C7.19582 1.07935 7.07758 1.08224 6.96079 1.07575C6.67672 1.05987 6.4835 0.865033 6.47485 0.595868C6.46548 0.323095 6.63779 0.11599 6.91969 0.0748577C7.58298 -0.0218395 8.25204 -0.0110151 8.91606 0.0301172C10.3955 0.121041 11.8165 0.461646 13.1373 1.15729C14.208 1.72087 15.1287 2.45765 15.7516 3.51771C16.1193 4.14336 16.3125 4.81879 16.3082 5.55196C16.3002 6.94036 16.3118 8.32948 16.3002 9.71788C16.2981 9.97405 16.3839 10.0354 16.6261 10.0347C19.1668 10.0275 21.7075 10.0303 24.2482 10.0303C24.8336 10.0303 24.9995 10.197 24.9995 10.7902C25.0002 13.2704 25.0002 15.7499 24.9995 18.2301C24.9995 18.8478 24.8517 18.9936 24.2345 18.9936C21.4588 18.9921 18.6838 18.9921 15.9087 18.9914ZM1.09569 8.28474C1.02143 8.35113 1.04522 8.41824 1.04522 8.47741C1.04378 10.1545 1.04739 11.8315 1.04378 13.5086C1.04234 14.1154 1.22186 14.6646 1.55495 15.1618C2.38046 16.3921 3.60251 17.0495 4.96442 17.5013C5.10717 17.5489 5.14034 17.4789 5.14034 17.3562C5.13962 17.0495 5.13673 16.7429 5.14322 16.4369C5.15115 16.0342 5.34293 15.8112 5.6652 15.8163C5.98892 15.8213 6.17132 16.0414 6.17925 16.447C6.18502 16.7537 6.18142 17.0604 6.18142 17.3663C6.18142 17.8253 6.18286 17.8137 6.62626 17.8765C7.79206 18.0418 8.96364 17.9617 10.1331 17.9848C10.3227 17.9884 10.3876 17.9162 10.3832 17.7308C10.3746 17.3613 10.3703 16.9911 10.3861 16.6216C10.4034 16.2103 10.7848 15.9714 11.1229 16.1454C11.2989 16.2363 11.3883 16.3885 11.3948 16.5827C11.407 16.9608 11.4149 17.3389 11.4157 17.7178C11.4157 17.891 11.4611 17.9855 11.6593 17.984C12.9023 17.979 14.146 17.979 15.3889 17.9833C15.5663 17.984 15.6276 17.9162 15.624 17.7437C15.616 17.3923 15.6189 17.0402 15.6232 16.6887C15.6276 16.3229 15.8359 16.0862 16.1409 16.0905C16.4365 16.0941 16.6268 16.3221 16.6297 16.6815C16.6326 17.0329 16.6384 17.3851 16.6276 17.7365C16.6218 17.9292 16.6989 17.9855 16.8821 17.9848C18.125 17.9797 19.3687 17.9783 20.6116 17.9855C20.8222 17.9869 20.8726 17.8996 20.8676 17.7098C20.8575 17.3678 20.8625 17.0243 20.8654 16.6822C20.869 16.3229 21.0579 16.0992 21.3571 16.092C21.6592 16.0847 21.8683 16.3236 21.8726 16.6916C21.8769 17.0344 21.882 17.3772 21.8705 17.7192C21.864 17.9191 21.9346 17.9905 22.1358 17.9855C22.6037 17.9747 23.0723 17.9826 23.5409 17.9826C23.9605 17.9826 23.9613 17.9826 23.9613 17.5742C23.9613 15.5183 23.9613 13.4624 23.9605 11.4065C23.9605 11.0392 23.9598 11.0392 23.582 11.0392C19.9065 11.0392 16.231 11.05 12.5555 11.0348C10.6832 11.0276 8.80791 11.1243 6.93771 10.9764C5.47414 10.8602 4.09637 10.4308 2.82097 9.69118C2.17066 9.31521 1.59605 8.84472 1.09569 8.28474ZM15.2952 8.21041C14.9239 8.63472 14.5728 8.95657 14.1914 9.24305C13.8114 9.52881 13.399 9.76478 12.9888 10.0072C13.6846 10.0289 14.3688 10.0289 15.053 10.0296C15.1748 10.0296 15.2959 10.0318 15.2959 9.85715C15.2945 9.33614 15.2952 8.81585 15.2952 8.21041Z" fill="#13B5EA" />
<path d="M8.57651 8.17806C7.13385 8.17229 6.17712 7.94425 5.34872 7.31067C4.05747 6.32277 4.0654 4.72871 5.35521 3.7372C5.99615 3.24434 6.73515 2.9961 7.52245 2.91167C8.56137 2.79982 9.57073 2.9261 10.5073 3.43268C10.7135 3.54453 10.9096 3.67298 11.0869 3.82669C12.2643 4.8485 12.2289 6.34442 10.9932 7.30129C10.1612 7.94498 9.19654 8.18455 8.57651 8.17806ZM8.26793 7.16707C8.40564 7.18006 8.64716 7.14325 8.8858 7.1014C9.508 6.9946 10.0913 6.79399 10.5491 6.33215C11.0559 5.82052 11.0509 5.22014 10.539 4.71211C10.4373 4.61109 10.3234 4.518 10.2023 4.44223C9.43807 3.96379 8.59814 3.82596 7.71495 3.91617C7.05021 3.98472 6.42081 4.16585 5.90243 4.61181C5.21534 5.20426 5.25644 5.9901 5.99543 6.52122C6.64215 6.98738 7.37898 7.15408 8.26793 7.16707Z" fill="#13B5EA" />
<path d="M4.99112 1.15741C4.96661 1.3739 4.84909 1.53843 4.63785 1.61636C3.8902 1.89346 3.19735 2.26654 2.55857 2.74498C2.31704 2.92538 2.03514 2.87415 1.86211 2.65622C1.68908 2.43901 1.70782 2.15108 1.94286 1.95841C2.66671 1.36307 3.48429 0.930822 4.37397 0.64506C4.68255 0.546198 5.0005 0.825465 4.99112 1.15741Z" fill="#13B5EA" />
</g>
</symbol></defs><use id="icon-arrow-usage" xlink:href="#icon-arrow" class="sprite-symbol-usage" /><use id="icon-arrow-pointer-usage" xlink:href="#icon-arrow-pointer" class="sprite-symbol-usage" /><use id="icon-cart-usage" xlink:href="#icon-cart" class="sprite-symbol-usage" /><use id="icon-checked-usage" xlink:href="#icon-checked" class="sprite-symbol-usage" /><use id="icon-heart-usage" xlink:href="#icon-heart" class="sprite-symbol-usage" /><use id="icon-heart-transparent-usage" xlink:href="#icon-heart-transparent" class="sprite-symbol-usage" /><use id="icon-person-usage" xlink:href="#icon-person" class="sprite-symbol-usage" /><use id="icon-plus-usage" xlink:href="#icon-plus" class="sprite-symbol-usage" /><use id="icon-ruble-usage" xlink:href="#icon-ruble" class="sprite-symbol-usage" /><use id="icon-search-usage" xlink:href="#icon-search" class="sprite-symbol-usage" /><use id="icon-settings-usage" xlink:href="#icon-settings" class="sprite-symbol-usage" /><use id="icon-tape-usage" xlink:href="#icon-tape" class="sprite-symbol-usage" /></svg>